<svg xmlns="http://www.w3.org/2000/svg" width="568" height="240">
    <style>line, path, circle,rect,polygon {
                          stroke: black;
                          stroke-width: 2;
                          stroke-opacity: 1;
                          fill-opacity: 1;
                          stroke-linecap: round;
                          stroke-linejoin: miter;
                        }

                    text {
                        /* This fix the spacing bug in svg text*/
                        white-space: pre;
                        fill: black;
                        }
                        rect.backdrop{
                            stroke: none;
                            fill: none;
                        }
                        .broken{
                            stroke-dasharray: 8;
                        }
                        .filled{
                            fill: black;
                        }
                        .bg_filled{
                            fill: none;
                        }
                        .nofill{
                            fill: none;
                        }

                        text {
                         font-family: monospace;
                         font-size: 14px;
                        }

                        .end_marked_arrow{
                            marker-end: url(#arrow);
                         }
                        .start_marked_arrow{
                            marker-start: url(#arrow);
                         }

                        .end_marked_diamond{
                            marker-end: url(#diamond);
                         }
                        .start_marked_diamond{
                            marker-start: url(#diamond);
                         }

                        .end_marked_circle{
                            marker-end: url(#circle);
                         }
                        .start_marked_circle{
                            marker-start: url(#circle);
                         }

                        .end_marked_open_circle{
                            marker-end: url(#open_circle);
                         }
                        .start_marked_open_circle{
                            marker-start: url(#open_circle);
                         }

                        .end_marked_big_open_circle{
                            marker-end: url(#big_open_circle);
                         }
                        .start_marked_big_open_circle{
                            marker-start: url(#big_open_circle);
                         }

                         
                        </style>
    <defs>
        <marker id="arrow" viewBox="-2 -2 8 8" refX="4" refY="2" markerWidth="7" markerHeight="7" orient="auto-start-reverse">
            <polygon points="0,0 0,4 4,2 0,0"></polygon>
        </marker>
        <marker id="diamond" viewBox="-2 -2 8 8" refX="4" refY="2" markerWidth="7" markerHeight="7" orient="auto-start-reverse">
            <polygon points="0,2 2,0 4,2 2,4 0,2"></polygon>
        </marker>
        <marker id="circle" viewBox="0 0 8 8" refX="4" refY="4" markerWidth="7" markerHeight="7" orient="auto-start-reverse">
            <circle cx="4" cy="4" r="2" class="filled"></circle>
        </marker>
        <marker id="open_circle" viewBox="0 0 8 8" refX="4" refY="4" markerWidth="7" markerHeight="7" orient="auto-start-reverse">
            <circle cx="4" cy="4" r="2" class="bg_filled"></circle>
        </marker>
        <marker id="big_open_circle" viewBox="0 0 8 8" refX="4" refY="4" markerWidth="7" markerHeight="7" orient="auto-start-reverse">
            <circle cx="4" cy="4" r="3" class="bg_filled"></circle>
        </marker>
    </defs>
    <rect class="backdrop" x="0" y="0" width="568" height="240"></rect>
    <line x1="140" y1="48" x2="140" y2="16" class="solid end_marked_arrow"></line>
    <line x1="164" y1="80" x2="164" y2="48" class="solid end_marked_arrow"></line>
    <line x1="196" y1="112" x2="196" y2="80" class="solid end_marked_arrow"></line>
    <line x1="16" y1="120" x2="4" y2="120" class="solid end_marked_open_circle"></line>
    <line x1="16" y1="120" x2="68" y2="120" class="solid end_marked_circle"></line>
    <line x1="72" y1="120" x2="236" y2="120" class="solid end_marked_circle"></line>
    <line x1="240" y1="120" x2="260" y2="120" class="solid end_marked_circle"></line>
    <line x1="264" y1="120" x2="432" y2="120" class="solid end_marked_arrow"></line>
    <line x1="72" y1="128" x2="88" y2="160" class="solid end_marked_arrow"></line>
    <line x1="216" y1="160" x2="232" y2="128" class="solid end_marked_arrow"></line>
    <line x1="260" y1="128" x2="260" y2="168" class="solid end_marked_big_open_circle"></line>
    <line x1="104" y1="168" x2="92" y2="168" class="solid end_marked_open_circle"></line>
    <line x1="104" y1="168" x2="116" y2="168" class="solid end_marked_circle"></line>
    <line x1="120" y1="168" x2="140" y2="168" class="solid end_marked_circle"></line>
    <line x1="144" y1="168" x2="196" y2="168" class="solid end_marked_big_open_circle"></line>
    <line x1="120" y1="176" x2="136" y2="208" class="solid end_marked_arrow"></line>
    <line x1="176" y1="208" x2="192" y2="176" class="solid end_marked_arrow"></line>
    <line x1="260" y1="176" x2="260" y2="192" class="solid"></line>
    <rect x="256" y="196" width="8" height="8" class="solid filled" rx="0"></rect>
    <line x1="152" y1="216" x2="140" y2="216" class="solid end_marked_open_circle"></line>
    <line x1="152" y1="216" x2="164" y2="216" class="solid end_marked_circle"></line>
    <text x="554" y="124" >.</text>
    <text x="138" y="12" >my-library-0.1.0-MILESTONE-202104081246.jar</text>
    <text x="162" y="44" >my-library-0.1.0-SNAPSHOT.jar</text>
    <text x="194" y="76" >my-library-0.1.0-MILESTONE-20210412-0014.jar</text>
    <text x="2" y="108" >main</text>
    <text x="2" y="172" >develop</text>
    <text x="274" y="172" >tags/0.1.0</text>
    <text x="274" y="204" >my-library-0.1.0.jar</text>
    <text x="2" y="220" >feature/xyz</text>
    <g>
        <line x1="140" y1="48" x2="140" y2="112" class="solid"></line>
        <path d="M 140,112 A 12,12 0,0,0 140,128" class="nofill"></path>
        <line x1="140" y1="128" x2="140" y2="160" class="solid"></line>
    </g>
    <g>
        <line x1="164" y1="80" x2="164" y2="112" class="solid"></line>
        <path d="M 164,112 A 12,12 0,0,0 164,128" class="nofill"></path>
        <line x1="164" y1="128" x2="164" y2="160" class="solid"></line>
        <path d="M 164,160 A 12,12 0,0,0 164,176" class="nofill"></path>
        <line x1="164" y1="176" x2="164" y2="208" class="solid"></line>
    </g>
    <g>
        <path d="M 196,112 A 12,12 0,0,0 196,128" class="nofill"></path>
        <line x1="196" y1="128" x2="196" y2="160" class="solid"></line>
    </g>
    <g>
        <line x1="200" y1="168" x2="208" y2="168" class="solid"></line>
        <line x1="216" y1="160" x2="214" y2="164" class="solid"></line>
        <path d="M 214,164 A 8,8 0,0,1 208,168" class="nofill"></path>
    </g>
    <g>
        <line x1="176" y1="208" x2="174" y2="212" class="solid"></line>
        <path d="M 174,212 A 8,8 0,0,1 168,216" class="nofill"></path>
    </g>
</svg>