<svg xmlns="http://www.w3.org/2000/svg" width="112" height="144">
    <style>line, path, circle,rect,polygon {
                          stroke: white;
                          stroke-width: 2;
                          stroke-opacity: 1;
                          fill-opacity: 1;
                          stroke-linecap: round;
                          stroke-linejoin: miter;
                        }

                    text {
                        fill: white;
                        }
                        rect.backdrop{
                            stroke: none;
                            fill: none;
                        }
                        .broken{
                            stroke-dasharray: 8;
                        }
                        .filled{
                            fill: white;
                        }
                        .bg_filled{
                            fill: white;
                        }
                        .nofill{
                            fill: white;
                        }

                        text {
                         font-family: monospace;
                         font-size: 14px;
                        }

                        .end_marked_arrow{
                            marker-end: url(#arrow);
                         }
                        .start_marked_arrow{
                            marker-start: url(#arrow);
                         }

                        .end_marked_diamond{
                            marker-end: url(#diamond);
                         }
                        .start_marked_diamond{
                            marker-start: url(#diamond);
                         }

                        .end_marked_circle{
                            marker-end: url(#circle);
                         }
                        .start_marked_circle{
                            marker-start: url(#circle);
                         }

                        .end_marked_open_circle{
                            marker-end: url(#open_circle);
                         }
                        .start_marked_open_circle{
                            marker-start: url(#open_circle);
                         }

                        .end_marked_big_open_circle{
                            marker-end: url(#big_open_circle);
                         }
                        .start_marked_big_open_circle{
                            marker-start: url(#big_open_circle);
                         }

                         
                        </style>
    <defs>
        <marker id="arrow" viewBox="-2 -2 8 8" refX="4" refY="2" markerWidth="7" markerHeight="7" orient="auto-start-reverse">
            <polygon points="0,0 0,4 4,2 0,0"></polygon>
        </marker>
        <marker id="diamond" viewBox="-2 -2 8 8" refX="4" refY="2" markerWidth="7" markerHeight="7" orient="auto-start-reverse">
            <polygon points="0,2 2,0 4,2 2,4 0,2"></polygon>
        </marker>
        <marker id="circle" viewBox="0 0 8 8" refX="4" refY="4" markerWidth="7" markerHeight="7" orient="auto-start-reverse">
            <circle cx="4" cy="4" r="2" class="filled"></circle>
        </marker>
        <marker id="open_circle" viewBox="0 0 8 8" refX="4" refY="4" markerWidth="7" markerHeight="7" orient="auto-start-reverse">
            <circle cx="4" cy="4" r="2" class="bg_filled"></circle>
        </marker>
        <marker id="big_open_circle" viewBox="0 0 8 8" refX="4" refY="4" markerWidth="7" markerHeight="7" orient="auto-start-reverse">
            <circle cx="4" cy="4" r="3" class="bg_filled"></circle>
        </marker>
    </defs>
    <rect class="backdrop" x="0" y="0" width="112" height="144"></rect>
    <circle cx="60" cy="72" r="4" class="filled"></circle>
    <line x1="36" y1="88" x2="88" y2="88" class="solid end_marked_arrow"></line>
    <line x1="60" y1="104" x2="88" y2="104" class="solid end_marked_arrow"></line>
    <g>
        <line x1="56" y1="16" x2="64" y2="16" class="solid"></line>
        <path d="M 56,16 A 16,16 0,0,0 56,32" class="nofill"></path>
        <line x1="56" y1="32" x2="64" y2="32" class="solid"></line>
        <path d="M 64,16 A 16,16 0,0,1 64,32" class="nofill"></path>
        <line x1="60" y1="32" x2="60" y2="104" class="solid"></line>
        <line x1="60" y1="56" x2="100" y2="56" class="solid"></line>
        <circle cx="60" cy="104" r="2" class="nofill"></circle>
        <path d="M 8,40 A 4,4 0,0,0 4,44" class="nofill"></path>
        <line x1="4" y1="44" x2="4" y2="56" class="solid"></line>
        <line x1="8" y1="40" x2="92" y2="40" class="solid"></line>
        <path d="M 92,40 A 8,8 0,0,1 100,48" class="nofill"></path>
        <line x1="4" y1="56" x2="34" y2="116" class="solid"></line>
        <line x1="100" y1="48" x2="100" y2="116" class="solid"></line>
        <line x1="12" y1="72" x2="100" y2="72" class="solid"></line>
        <path d="M 34,116 A 8,8 0,0,0 40,120" class="nofill"></path>
        <line x1="40" y1="120" x2="96" y2="120" class="solid"></line>
        <path d="M 100,116 A 4,4 0,0,1 96,120" class="nofill"></path>
    </g>
    <g>
        <circle cx="20" cy="24" r="4" class="filled"></circle>
        <line x1="20" y1="24" x2="20" y2="56" class="solid"></line>
        <line x1="20" y1="56" x2="32" y2="80" class="solid"></line>
        <line x1="32" y1="80" x2="36" y2="88" class="solid"></line>
        <circle cx="36" cy="88" r="2" class="nofill"></circle>
    </g>
</svg>